<svg viewBox="0 0 512 512" xmlns="http://www.w3.org/2000/svg">
<defs>
  <clipPath id="rnd"><rect width="512" height="512" rx="80"/></clipPath>
  <radialGradient id="bg-glow" cx="50%" cy="50%" r="50%">
    <stop offset="0%" stop-color="#2D0A6E" stop-opacity="0.9"/>
    <stop offset="100%" stop-color="#060311" stop-opacity="1"/>
  </radialGradient>
  <radialGradient id="portal-core" cx="50%" cy="50%" r="50%">
    <stop offset="0%" stop-color="#FFFFFF" stop-opacity="1"/>
    <stop offset="20%" stop-color="#7DF4EC" stop-opacity="0.95"/>
    <stop offset="55%" stop-color="#1BB8C8" stop-opacity="0.6"/>
    <stop offset="100%" stop-color="#0B0222" stop-opacity="0"/>
  </radialGradient>
  <radialGradient id="aura" cx="50%" cy="50%" r="50%">
    <stop offset="0%" stop-color="#1BB8C8" stop-opacity="0.25"/>
    <stop offset="100%" stop-color="#0B0222" stop-opacity="0"/>
  </radialGradient>
  <linearGradient id="frame-gold" x1="0" y1="0" x2="0" y2="1">
    <stop offset="0%" stop-color="#F5DC6A"/>
    <stop offset="45%" stop-color="#C9A034"/>
    <stop offset="100%" stop-color="#7A5A10"/>
  </linearGradient>
</defs>

<rect width="512" height="512" rx="80" fill="url(#bg-glow)"/>

<g clip-path="url(#rnd)" fill="white">
  <circle cx="44" cy="78" r="1.3" opacity="0.7"/>
  <circle cx="118" cy="44" r="0.9" opacity="0.5"/>
  <circle cx="376" cy="68" r="1.6" opacity="0.8"/>
  <circle cx="458" cy="118" r="1.1" opacity="0.6"/>
  <circle cx="78" cy="428" r="1.4" opacity="0.7"/>
  <circle cx="438" cy="398" r="1" opacity="0.5"/>
  <circle cx="158" cy="468" r="1" opacity="0.5"/>
  <circle cx="418" cy="458" r="1.5" opacity="0.8"/>
  <circle cx="48" cy="238" r="0.9" opacity="0.4"/>
  <circle cx="468" cy="278" r="1.2" opacity="0.6"/>
  <circle cx="138" cy="198" r="0.8" opacity="0.4"/>
  <circle cx="378" cy="158" r="1.1" opacity="0.5"/>
  <circle cx="348" cy="438" r="1.3" opacity="0.7"/>
  <circle cx="488" cy="200" r="0.8" opacity="0.4"/>
  <circle cx="28" cy="320" r="1.1" opacity="0.5"/>
  <circle cx="490" cy="350" r="0.9" opacity="0.4"/>
</g>

<circle cx="256" cy="265" r="165" fill="url(#aura)" clip-path="url(#rnd)"/>

<rect x="68" y="56" width="376" height="400" rx="20" fill="#0A0118" opacity="0.8" clip-path="url(#rnd)"/>
<rect x="68" y="56" width="376" height="400" rx="20" fill="#12062A" stroke="url(#frame-gold)" stroke-width="5" clip-path="url(#rnd)"/>
<rect x="88" y="76" width="336" height="360" rx="13" fill="none" stroke="#C9A034" stroke-width="1.5" opacity="0.4"/>

<g>
  <rect x="88" y="76" width="52" height="3" rx="1.5" fill="#C9A034" opacity="0.6"/>
  <rect x="88" y="76" width="3" height="52" rx="1.5" fill="#C9A034" opacity="0.6"/>
  <polygon points="108,100 118,90 128,100 118,110" fill="#C9A034" opacity="0.95"/>
  <circle cx="118" cy="100" r="4" fill="#F5DC6A"/>
</g>
<g>
  <rect x="372" y="76" width="52" height="3" rx="1.5" fill="#C9A034" opacity="0.6"/>
  <rect x="421" y="76" width="3" height="52" rx="1.5" fill="#C9A034" opacity="0.6"/>
  <polygon points="384,100 394,90 404,100 394,110" fill="#C9A034" opacity="0.95"/>
  <circle cx="394" cy="100" r="4" fill="#F5DC6A"/>
</g>
<g>
  <rect x="88" y="433" width="52" height="3" rx="1.5" fill="#C9A034" opacity="0.6"/>
  <rect x="88" y="384" width="3" height="52" rx="1.5" fill="#C9A034" opacity="0.6"/>
  <polygon points="108,412 118,402 128,412 118,422" fill="#C9A034" opacity="0.95"/>
  <circle cx="118" cy="412" r="4" fill="#F5DC6A"/>
</g>
<g>
  <rect x="372" y="433" width="52" height="3" rx="1.5" fill="#C9A034" opacity="0.6"/>
  <rect x="421" y="384" width="3" height="52" rx="1.5" fill="#C9A034" opacity="0.6"/>
  <polygon points="384,412 394,402 404,412 394,422" fill="#C9A034" opacity="0.95"/>
  <circle cx="394" cy="412" r="4" fill="#F5DC6A"/>
</g>

<rect x="88" y="76" width="336" height="40" rx="0" fill="#0E033D" opacity="0.85"/>
<line x1="88" y1="116" x2="424" y2="116" stroke="#C9A034" stroke-width="1.5" opacity="0.4"/>

<circle cx="196" cy="96" r="10" fill="#5D1A8C" stroke="#C9A034" stroke-width="1.5"/>
<circle cx="226" cy="96" r="10" fill="#1A3A8C" stroke="#C9A034" stroke-width="1.5"/>
<circle cx="256" cy="96" r="10" fill="#1A6B3A" stroke="#C9A034" stroke-width="1.5"/>
<circle cx="286" cy="96" r="10" fill="#8C1A1A" stroke="#C9A034" stroke-width="1.5"/>
<circle cx="316" cy="96" r="10" fill="#6A6010" stroke="#C9A034" stroke-width="1.5"/>

<g stroke="#C9A034" stroke-width="2.5" stroke-linecap="round">
  <line x1="360" y1="265" x2="372" y2="265"/>
  <line x1="152" y1="265" x2="140" y2="265"/>
  <line x1="256" y1="157" x2="256" y2="145"/>
  <line x1="256" y1="373" x2="256" y2="385"/>
</g>
<g stroke="#C9A034" stroke-width="1.5" stroke-linecap="round" opacity="0.55">
  <line x1="329" y1="193" x2="337" y2="185"/>
  <line x1="183" y1="337" x2="175" y2="345"/>
  <line x1="183" y1="193" x2="175" y2="185"/>
  <line x1="329" y1="337" x2="337" y2="345"/>
</g>

<circle cx="256" cy="265" r="108" fill="#0A0118" opacity="0.98"/>
<circle cx="256" cy="265" r="104" fill="none" stroke="#7B2FBE" stroke-width="2.5" opacity="0.7"/>
<circle cx="256" cy="265" r="95" fill="none" stroke="#C9A034" stroke-width="2" opacity="0.8"/>
<circle cx="256" cy="265" r="83" fill="none" stroke="#1BB8C8" stroke-width="2.5" opacity="0.9"/>

<g stroke="#1BB8C8" stroke-width="2" stroke-linecap="round" opacity="0.9">
  <g transform="rotate(0 256 265)">  <line x1="341" y1="262" x2="351" y2="262"/></g>
  <g transform="rotate(45 256 265)"><line x1="341" y1="262" x2="351" y2="262"/></g>
  <g transform="rotate(90 256 265)"><line x1="341" y1="262" x2="351" y2="262"/></g>
  <g transform="rotate(135 256 265)"><line x1="341" y1="262" x2="351" y2="262"/></g>
  <g transform="rotate(180 256 265)"><line x1="341" y1="262" x2="351" y2="262"/></g>
  <g transform="rotate(225 256 265)"><line x1="341" y1="262" x2="351" y2="262"/></g>
  <g transform="rotate(270 256 265)"><line x1="341" y1="262" x2="351" y2="262"/></g>
  <g transform="rotate(315 256 265)"><line x1="341" y1="262" x2="351" y2="262"/></g>
</g>

<circle cx="256" cy="265" r="70" fill="#060110"/>

<polygon points="256,195 264,253 256,311 248,253" fill="#1BB8C8" opacity="0.95"/>
<polygon points="186,265 244,257 302,265 244,273" fill="#1BB8C8" opacity="0.95"/>
<g transform="rotate(45 256 265)">
  <polygon points="256,202 263,253 256,304 249,253" fill="#A78BFA" opacity="0.8"/>
  <polygon points="196,265 247,258 298,265 247,272" fill="#A78BFA" opacity="0.8"/>
</g>

<circle cx="256" cy="265" r="42" fill="url(#portal-core)"/>
<circle cx="256" cy="265" r="10" fill="white"/>
<circle cx="256" cy="265" r="6" fill="#7DF4EC"/>

<g fill="#1BB8C8" opacity="0.85">
  <circle cx="369" cy="314" r="3"/>
  <circle cx="143" cy="314" r="3"/>
  <circle cx="369" cy="216" r="3"/>
  <circle cx="143" cy="216" r="3"/>
</g>
<g fill="#F5DC6A" opacity="0.8">
  <circle cx="256" cy="132" r="4"/>
  <circle cx="256" cy="398" r="4"/>
  <circle cx="389" cy="265" r="4"/>
  <circle cx="123" cy="265" r="4"/>
</g>
<g stroke="#F5DC6A" stroke-width="1.5" stroke-linecap="round" opacity="0.7">
  <line x1="256" y1="127" x2="256" y2="137"/>
  <line x1="251" y1="132" x2="261" y2="132"/>
  <line x1="256" y1="393" x2="256" y2="403"/>
  <line x1="251" y1="398" x2="261" y2="398"/>
  <line x1="384" y1="265" x2="394" y2="265"/>
  <line x1="389" y1="260" x2="389" y2="270"/>
  <line x1="118" y1="265" x2="128" y2="265"/>
  <line x1="123" y1="260" x2="123" y2="270"/>
</g>

<line x1="88" y1="406" x2="424" y2="406" stroke="#C9A034" stroke-width="1.5" opacity="0.4"/>
<rect x="88" y="406" width="336" height="30" rx="0" fill="#0E033D" opacity="0.6"/>
<g fill="#C9A034" opacity="0.5">
  <circle cx="220" cy="421" r="2.5"/>
  <circle cx="236" cy="421" r="2.5"/>
  <circle cx="252" cy="421" r="2.5"/>
  <circle cx="268" cy="421" r="2.5"/>
  <circle cx="284" cy="421" r="2.5"/>
  <circle cx="300" cy="421" r="2.5"/>
</g>
</svg>
